<svg class="svg-sprite-sheet" xmlns="http://www.w3.org/2000/svg" xmlns:xlink="http://www.w3.org/1999/xlink">
    <defs>
        <symbol viewBox="0 0 31 17" id="arrow-down">
            <path d="M1.50089 0.859379L15.643 15.0015L29.7852 0.859375" stroke-width="2"></path>
        </symbol>
        <symbol viewBox="0 0 17 30" id="arrow-next">
            <g clip-path="url(#arrow-next_clip0_1365_24247)">
                <path d="M1.1705 29.3102L15.3126 15.1681L0.859375 0.714844" stroke-width="2"></path>
            </g>
            <defs></defs>
        </symbol>
        <clipPath id="arrow-next_clip0_1365_24247">
            <rect width="17" height="30" transform="translate(17 30) rotate(-180)"></rect>
        </clipPath>
        <symbol viewBox="0 0 17 30" id="arrow-prev">
            <g clip-path="url(#arrow-prev_clip0_1365_24248)">
                <path d="M15.8295 29.3102L1.68736 15.1681L16.1406 0.714844" stroke-width="2"></path>
            </g>
            <defs></defs>
        </symbol>
        <clipPath id="arrow-prev_clip0_1365_24248">
            <rect width="17" height="30" transform="matrix(1 -8.74228e-08 -8.74228e-08 -1 0 30)"></rect>
        </clipPath>
        <symbol viewBox="0 0 9 8" id="arrow-small-next">
            <path d="M8.35355 4.35355C8.54882 4.15829 8.54882 3.84171 8.35355 3.64645L5.17157 0.464466C4.97631 0.269204 4.65973 0.269204 4.46447 0.464466C4.2692 0.659728 4.2692 0.976311 4.46447 1.17157L7.29289 4L4.46447 6.82843C4.2692 7.02369 4.2692 7.34027 4.46447 7.53553C4.65973 7.7308 4.97631 7.7308 5.17157 7.53553L8.35355 4.35355ZM0 4.5H8V3.5H0V4.5Z"></path>
        </symbol>
        <symbol viewBox="0 0 9 8" id="arrow-small-prev">
            <path d="M0.646446 4.35355C0.451184 4.15829 0.451184 3.84171 0.646446 3.64645L3.82843 0.464466C4.02369 0.269204 4.34027 0.269204 4.53553 0.464466C4.7308 0.659728 4.7308 0.976311 4.53553 1.17157L1.70711 4L4.53553 6.82843C4.7308 7.02369 4.7308 7.34027 4.53553 7.53553C4.34027 7.7308 4.02369 7.7308 3.82843 7.53553L0.646446 4.35355ZM9 4.5H1V3.5H9V4.5Z"></path>
        </symbol>
        <symbol viewBox="0 0 14 16" id="bin">
            <path fill-rule="evenodd" clip-rule="evenodd" d="M4 14V5H2V15C2 15.5523 2.44772 16 3 16H11C11.5523 16 12 15.5523 12 15V5H10V14H4Z"></path>
            <path d="M9 2V0H5V2H0V4H14V2L9 2Z"></path>
        </symbol>
        <symbol viewBox="0 0 12 14" id="bookmark">
            <path d="M1.625 12.5742V1.19922H10.375V12.5742L6 8.61732L1.625 12.5742Z" stroke-width="2" stroke-linejoin="round"></path>
        </symbol>
        <symbol viewBox="0 0 32 32" id="close-cross">
            <path d="M29 3L3 29" stroke-width="2"></path>
            <path d="M29 29L3 3.00017" stroke-width="4"></path>
        </symbol>
        <symbol viewBox="0 0 2650 1440" id="concrete-texture">
            <g clip-path="url(#concrete-texture_clip0_2134_24685)">
                <path d="M-465 127L3115 -1375"></path>
                <path d="M-465 139L3115 -1363"></path>
                <path d="M-465 151L3115 -1351"></path>
                <path d="M-465 163L3115 -1339"></path>
                <path d="M-465 175L3115 -1327"></path>
                <path d="M-465 187L3115 -1315"></path>
                <path d="M-465 199L3115 -1303"></path>
                <path d="M-465 211L3115 -1291"></path>
                <path d="M-465 223L3115 -1279"></path>
                <path d="M-465 235L3115 -1267"></path>
                <path d="M-465 247L3115 -1255"></path>
                <path d="M-465 259L3115 -1243"></path>
                <path d="M-465 271L3115 -1231"></path>
                <path d="M-465 283L3115 -1219"></path>
                <path d="M-465 295L3115 -1207"></path>
                <path d="M-465 307L3115 -1195"></path>
                <path d="M-465 319L3115 -1183"></path>
                <path d="M-465 331L3115 -1171"></path>
                <path d="M-465 343L3115 -1159"></path>
                <path d="M-465 355L3115 -1147"></path>
                <path d="M-465 367L3115 -1135"></path>
                <path d="M-465 379L3115 -1123"></path>
                <path d="M-465 391L3115 -1111"></path>
                <path d="M-465 403L3115 -1099"></path>
                <path d="M-465 415L3115 -1087"></path>
                <path d="M-465 427L3115 -1075"></path>
                <path d="M-465 439L3115 -1063"></path>
                <path d="M-465 451L3115 -1051"></path>
                <path d="M-465 463L3115 -1039"></path>
                <path d="M-465 475L3115 -1027"></path>
                <path d="M-465 487L3115 -1015"></path>
                <path d="M-465 499L3115 -1003"></path>
                <path d="M-465 511L3115 -991"></path>
                <path d="M-465 523L3115 -979"></path>
                <path d="M-465 535L3115 -967"></path>
                <path d="M-465 547L3115 -955"></path>
                <path d="M-465 559L3115 -943"></path>
                <path d="M-465 571L3115 -931"></path>
                <path d="M-465 583L3115 -919"></path>
                <path d="M-465 595L3115 -907"></path>
                <path d="M-465 607L3115 -895"></path>
                <path d="M-465 619L3115 -883"></path>
                <path d="M-465 631L3115 -871"></path>
                <path d="M-465 643L3115 -859"></path>
                <path d="M-465 655L3115 -847"></path>
                <path d="M-465 667L3115 -835"></path>
                <path d="M-465 679L3115 -823"></path>
                <path d="M-465 691L3115 -811"></path>
                <path d="M-465 703L3115 -799"></path>
                <path d="M-465 715L3115 -787"></path>
                <path d="M-465 727L3115 -775"></path>
                <path d="M-465 739L3115 -763"></path>
                <path d="M-465 751L3115 -751"></path>
                <path d="M-465 763L3115 -739"></path>
                <path d="M-465 775L3115 -727"></path>
                <path d="M-465 787L3115 -715"></path>
                <path d="M-465 799L3115 -703"></path>
                <path d="M-465 811L3115 -691"></path>
                <path d="M-465 823L3115 -679"></path>
                <path d="M-465 835L3115 -667"></path>
                <path d="M-465 847L3115 -655"></path>
                <path d="M-465 859L3115 -643"></path>
                <path d="M-465 871L3115 -631"></path>
                <path d="M-465 883L3115 -619"></path>
                <path d="M-465 895L3115 -607"></path>
                <path d="M-465 907L3115 -595"></path>
                <path d="M-465 919L3115 -583"></path>
                <path d="M-465 931L3115 -571"></path>
                <path d="M-465 943L3115 -559"></path>
                <path d="M-465 955L3115 -547"></path>
                <path d="M-465 967L3115 -535"></path>
                <path d="M-465 979L3115 -523"></path>
                <path d="M-465 991L3115 -511"></path>
                <path d="M-465 1003L3115 -499"></path>
                <path d="M-465 1015L3115 -487"></path>
                <path d="M-465 1027L3115 -475"></path>
                <path d="M-465 1039L3115 -463"></path>
                <path d="M-465 1051L3115 -451"></path>
                <path d="M-465 1063L3115 -439"></path>
                <path d="M-465 1075L3115 -427"></path>
                <path d="M-465 1087L3115 -415"></path>
                <path d="M-465 1099L3115 -403"></path>
                <path d="M-465 1111L3115 -391"></path>
                <path d="M-465 1123L3115 -379"></path>
                <path d="M-465 1135L3115 -367"></path>
                <path d="M-465 1147L3115 -355"></path>
                <path d="M-465 1159L3115 -343"></path>
                <path d="M-465 1171L3115 -331"></path>
                <path d="M-465 1183L3115 -319"></path>
                <path d="M-465 1195L3115 -307"></path>
                <path d="M-465 1207L3115 -295"></path>
                <path d="M-465 1219L3115 -283"></path>
                <path d="M-465 1231L3115 -271"></path>
                <path d="M-465 1243L3115 -259"></path>
                <path d="M-465 1255L3115 -247"></path>
                <path d="M-465 1267L3115 -235"></path>
                <path d="M-465 1279L3115 -223"></path>
                <path d="M-465 1291L3115 -211"></path>
                <path d="M-465 1303L3115 -199"></path>
                <path d="M-465 1315L3115 -187"></path>
                <path d="M-465 1327L3115 -175"></path>
                <path d="M-465 1339L3115 -163"></path>
                <path d="M-465 1351L3115 -151"></path>
                <path d="M-465 1363L3115 -139"></path>
                <path d="M-465 1375L3115 -127"></path>
                <path d="M-465 1387L3115 -115"></path>
                <path d="M-465 1399L3115 -103"></path>
                <path d="M-465 1411L3115 -91"></path>
                <path d="M-465 1423L3115 -79"></path>
                <path d="M-465 1435L3115 -67"></path>
                <path d="M-465 1447L3115 -55"></path>
                <path d="M-465 1459L3115 -43"></path>
                <path d="M-465 1471L3115 -31"></path>
                <path d="M-465 1483L3115 -19"></path>
                <path d="M-465 1495L3115 -7"></path>
                <path d="M-465 1507L3115 5"></path>
                <path d="M-465 1519L3115 17"></path>
                <path d="M-465 1531L3115 29"></path>
                <path d="M-465 1543L3115 41"></path>
                <path d="M-465 1555L3115 53"></path>
                <path d="M-465 1567L3115 65"></path>
                <path d="M-465 1579L3115 77"></path>
                <path d="M-465 1591L3115 89"></path>
                <path d="M-465 1603L3115 101"></path>
                <path d="M-465 1615L3115 113"></path>
                <path d="M-465 1627L3115 125"></path>
                <path d="M-465 1639L3115 137"></path>
                <path d="M-465 1651L3115 149"></path>
                <path d="M-465 1663L3115 161"></path>
                <path d="M-465 1675L3115 173"></path>
                <path d="M-465 1687L3115 185"></path>
                <path d="M-465 1699L3115 197"></path>
                <path d="M-465 1711L3115 209"></path>
                <path d="M-465 1723L3115 221"></path>
                <path d="M-465 1735L3115 233"></path>
                <path d="M-465 1747L3115 245"></path>
                <path d="M-465 1759L3115 257"></path>
                <path d="M-465 1771L3115 269"></path>
                <path d="M-465 1783L3115 281"></path>
                <path d="M-465 1795L3115 293"></path>
                <path d="M-465 1807L3115 305"></path>
                <path d="M-465 1819L3115 317"></path>
                <path d="M-465 1831L3115 329"></path>
                <path d="M-465 1843L3115 341"></path>
                <path d="M-465 1855L3115 353"></path>
                <path d="M-465 1867L3115 365"></path>
                <path d="M-465 1879L3115 377"></path>
                <path d="M-465 1891L3115 389"></path>
                <path d="M-465 1903L3115 401"></path>
                <path d="M-465 1915L3115 413"></path>
                <path d="M-465 1927L3115 425"></path>
                <path d="M-465 1939L3115 437"></path>
                <path d="M-465 1951L3115 449"></path>
                <path d="M-465 1963L3115 461"></path>
                <path d="M-465 1975L3115 473"></path>
                <path d="M-465 1987L3115 485"></path>
                <path d="M-465 1999L3115 497"></path>
                <path d="M-465 2011L3115 509"></path>
                <path d="M-465 2023L3115 521"></path>
                <path d="M-465 2035L3115 533"></path>
                <path d="M-465 2047L3115 545"></path>
                <path d="M-465 2059L3115 557"></path>
                <path d="M-465 2071L3115 569"></path>
                <path d="M-465 2083L3115 581"></path>
                <path d="M-465 2095L3115 593"></path>
                <path d="M-465 2107L3115 605"></path>
                <path d="M-465 2119L3115 617"></path>
                <path d="M-465 2131L3115 629"></path>
                <path d="M-465 2143L3115 641"></path>
                <path d="M-465 2155L3115 653"></path>
                <path d="M-465 2167L3115 665"></path>
                <path d="M-465 2179L3115 677"></path>
                <path d="M-465 2191L3115 689"></path>
                <path d="M-465 2203L3115 701"></path>
                <path d="M-465 2215L3115 713"></path>
                <path d="M-465 2227L3115 725"></path>
                <path d="M-465 2239L3115 737"></path>
                <path d="M-465 2251L3115 749"></path>
                <path d="M-465 2263L3115 761"></path>
                <path d="M-465 2275L3115 773"></path>
                <path d="M-465 2287L3115 785"></path>
                <path d="M-465 2299L3115 797"></path>
                <path d="M-465 2311L3115 809"></path>
                <path d="M-465 2323L3115 821"></path>
                <path d="M-465 2335L3115 833"></path>
                <path d="M-465 2347L3115 845"></path>
                <path d="M-465 2359L3115 857"></path>
                <path d="M-465 2371L3115 869"></path>
                <path d="M-465 2383L3115 881"></path>
                <path d="M-465 2395L3115 893"></path>
                <path d="M-465 2407L3115 905"></path>
                <path d="M-465 2419L3115 917"></path>
                <path d="M-465 2431L3115 929"></path>
                <path d="M-465 2443L3115 941"></path>
                <path d="M-465 2455L3115 953"></path>
                <path d="M-465 2467L3115 965"></path>
                <path d="M-465 2479L3115 977"></path>
                <path d="M-465 2491L3115 989"></path>
                <path d="M-465 2503L3115 1001"></path>
                <path d="M-465 2515L3115 1013"></path>
                <path d="M-465 2527L3115 1025"></path>
                <path d="M-465 2539L3115 1037"></path>
                <path d="M-465 2551L3115 1049"></path>
                <path d="M-465 2563L3115 1061"></path>
                <path d="M-465 2575L3115 1073"></path>
                <path d="M-465 2587L3115 1085"></path>
                <path d="M-465 2599L3115 1097"></path>
                <path d="M-465 2611L3115 1109"></path>
                <path d="M-465 2623L3115 1121"></path>
                <path d="M-465 2635L3115 1133"></path>
                <path d="M-465 2647L3115 1145"></path>
                <path d="M-465 2659L3115 1157"></path>
                <path d="M-465 2671L3115 1169"></path>
                <path d="M-465 2683L3115 1181"></path>
                <path d="M-465 2695L3115 1193"></path>
                <path d="M-465 2707L3115 1205"></path>
                <path d="M-465 2719L3115 1217"></path>
                <path d="M-465 2731L3115 1229"></path>
                <path d="M-465 2743L3115 1241"></path>
                <path d="M-465 2755L3115 1253"></path>
                <path d="M-465 2767L3115 1265"></path>
                <path d="M-465 2779L3115 1277"></path>
                <path d="M-465 2791L3115 1289"></path>
                <path d="M-465 2803L3115 1301"></path>
                <path d="M-465 2815L3115 1313"></path>
            </g>
            <defs></defs>
        </symbol>
        <clipPath id="concrete-texture_clip0_2134_24685">
            <rect width="2650" height="1440"></rect>
        </clipPath>
        <symbol viewBox="0 0 43 34" id="heart">
            <path d="M35.8785 18.3508C39.0269 15.2317 39.0269 10.1746 35.8785 7.05547C32.7301 3.93635 27.6255 3.93635 24.477 7.05547L10.1014 21.2973L21.5029 32.5926L35.8785 18.3508Z" stroke-width="2"></path>
            <path d="M18.1658 7.40713C15.2136 4.48237 10.427 4.48237 7.4748 7.40714C4.52255 10.3319 4.52255 15.0739 7.4748 17.9987L21.4869 31.8804L32.178 21.2889L18.1658 7.40713Z" stroke-width="3"></path>
        </symbol>
        <symbol viewBox="0 0 14 15" id="link-arrow">
            <g clip-path="url(#link-arrow_clip0_1450_17649)">
                <path d="M0 1.5H13V14.5" stroke-width="2" stroke-linejoin="bevel"></path>
                <path d="M0 14.5L13 1.5" stroke-width="2" stroke-linejoin="bevel"></path>
            </g>
            <defs></defs>
        </symbol>
        <clipPath id="link-arrow_clip0_1450_17649">
            <rect width="14" height="14" transform="translate(0 0.5)"></rect>
        </clipPath>
        <symbol viewBox="0 0 18 18" id="link-icon">
            <path d="M13.6448 11.0208L15.059 9.6066C17.0116 7.65398 17.0116 4.48816 15.059 2.53553V2.53553C13.1063 0.582912 9.94053 0.582912 7.9879 2.53553L6.57369 3.94975" stroke-width="2"></path>
            <path d="M11.5208 13.1448L10.1066 14.559C8.15398 16.5116 4.98816 16.5116 3.03553 14.559V14.559C1.08291 12.6063 1.08291 9.44053 3.03553 7.4879L4.44975 6.07369" stroke-width="2"></path>
            <path d="M11.5234 6.07031L5.86658 11.7272" stroke-width="2"></path>
        </symbol>
        <symbol viewBox="0 0 291 24" id="main-logo">
            <path fill-rule="evenodd" clip-rule="evenodd" d="M35.432 0.788717L23.1849 16.5487C19.6498 21.1025 16.8599 23.2011 10.9982 23.2011H4.54231V16.6098H12.1766C14.1909 16.6098 14.3622 15.7337 14.6039 15.4179L0 0.707217L10.6256 0.788717L18.9649 9.73329L25.9647 0.788717H35.432ZM209.893 13.7573C212.119 27.6021 249.152 27.7651 249.082 11.9949C249.152 -3.77526 212.119 -3.61226 209.893 10.2325H217.568C218.434 7.90974 223.812 6.27975 229.009 6.21863C234.206 6.1575 237.852 7.06418 239.997 9.12205H226.229V14.8678H239.997C237.862 16.9256 234.206 17.8323 229.009 17.7712C223.812 17.7101 218.434 16.0801 217.568 13.7573H209.893ZM148.96 23.2011V18.9937H163.07C177.603 18.9937 177.331 0.788717 163.07 0.788717H141.507V23.2011H148.95H148.96ZM163.09 7.14568C166.343 7.14568 166.464 12.6469 163.09 12.6469H148.96V7.1355H163.09V7.14568ZM291 13.7675C288.774 27.6123 251.741 27.7753 251.811 12.0051C251.741 -3.76507 288.774 -3.60207 291 10.2427H283.325C282.459 7.91993 277.917 6.30012 271.884 6.22881C265.851 6.1575 259.607 7.88937 259.607 12.0051C259.607 16.1208 265.861 17.8527 271.884 17.7814C277.917 17.7101 282.459 16.0903 283.325 13.7675H291ZM186.466 13.3091H196.186L191.331 5.92319L186.476 13.3091H186.466ZM200.335 19.6151H182.317L179.96 23.2011H170.966L185.993 0.788717H196.649L211.686 23.2011H202.692L200.335 19.6151ZM104.493 7.36981V0.788717H137.055V7.36981H124.516V23.2011H117.012V7.36981H104.483H104.493ZM79.1732 0.788717V4.99613H93.2836C107.817 4.99613 107.545 23.2011 93.2836 23.2011H71.7302V0.788717H79.1732ZM93.3037 16.8441C96.5568 16.8441 96.6777 11.3429 93.3037 11.3429H79.1732V16.8441H93.3037ZM66.3822 23.1909H58.9393V7.36981H45.4936L45.2318 11.8421C44.7987 19.1771 40.488 23.2011 33.9918 23.2011H31.0307V16.62H33.9515C36.6406 16.62 38.2722 14.9798 38.373 11.5263L38.6953 0.788717H66.3822V23.2011V23.1909Z"></path>
        </symbol>
        <symbol viewBox="0 0 30 30" id="phone">
            <path d="M2.16349 6.8012L1.79221 7.17249L1.88704 7.68893C2.69193 12.072 5.64769 16.7374 9.38222 20.4722C13.1167 24.207 17.7819 27.1632 22.1657 27.9675L22.6821 28.0622L23.0533 27.691L27.3029 23.4414L28.01 22.7343L27.3029 22.0272L22.8068 17.5311L22.2146 16.939L21.5277 17.418L17.9261 19.9294C17.8137 19.8766 17.6824 19.8077 17.5317 19.7195C17.1785 19.5127 16.7692 19.2295 16.3203 18.8822C15.423 18.188 14.4164 17.2753 13.457 16.3037C12.4979 15.3323 11.604 14.3204 10.9273 13.4341C10.5886 12.9905 10.3133 12.5902 10.1132 12.2507C10.0386 12.1241 9.97896 12.0135 9.93199 11.9185L12.4365 8.3268L12.9155 7.63987L12.3234 7.04771L7.82728 2.55162L7.12018 1.84452L6.41307 2.55162L2.16349 6.8012Z" stroke-width="2"></path>
        </symbol>
        <symbol viewBox="0 0 42 48" id="play">
            <path d="M42 24L1.71655e-06 48L3.8147e-06 -1.83588e-06L42 24Z"></path>
        </symbol>
        <symbol viewBox="0 0 16 16" id="star">
            <path d="M8 0.5L9.9477 5.90125L15.6865 6.08455L11.1515 9.606L12.7505 15.1205L8 11.8957L3.2495 15.1205L4.84855 9.606L0.313531 6.08455L6.0523 5.90125L8 0.5Z"></path>
        </symbol>
    </defs>
</svg>